<svg width="85" height="85" viewBox="0 0 85 85" fill="none" xmlns="http://www.w3.org/2000/svg">
<rect width="85" height="85" fill="white"/>
<g clip-path="url(#clip0)">
<path d="M27.6587 35.5896H36.9968V39.8231H37.127C37.428 39.2276 37.8591 38.6239 38.4203 38.0283C38.9816 37.4327 39.6568 36.8935 40.4295 36.4267C41.2104 35.9598 42.097 35.5735 43.0894 35.2677C44.0818 34.9699 45.1637 34.817 46.335 34.817C48.7997 34.817 50.7845 35.1952 52.3056 35.9438C53.8185 36.6923 54.998 37.7305 55.844 39.0585C56.6899 40.3865 57.2593 41.948 57.5603 43.7428C57.8613 45.5376 58.0158 47.4853 58.0158 49.586V66.7857H48.2872V51.5096C48.2872 50.6082 48.2547 49.6826 48.1896 48.7168C48.1245 47.7509 47.9293 46.8656 47.604 46.0527C47.2786 45.2398 46.7824 44.5798 46.1154 44.0647C45.4484 43.5496 44.4804 43.2921 43.2277 43.2921C41.975 43.2921 40.9582 43.5174 40.1774 43.9681C39.3965 44.4189 38.8027 45.0144 38.3959 45.763C37.9811 46.5115 37.7127 47.3566 37.5825 48.2982C37.4524 49.2399 37.3873 50.2219 37.3873 51.2521V66.7857H27.6587V35.5896Z" fill="black"/>
<path d="M32.523 28.515C35.2095 28.515 37.3873 26.3601 37.3873 23.7019C37.3873 21.0438 35.2095 18.8889 32.523 18.8889C29.8365 18.8889 27.6587 21.0438 27.6587 23.7019C27.6587 26.3601 29.8365 28.515 32.523 28.515Z" fill="black"/>
<path d="M53.1515 28.515C55.838 28.515 58.0158 26.3601 58.0158 23.7019C58.0158 21.0438 55.838 18.8889 53.1515 18.8889C50.4651 18.8889 48.2872 21.0438 48.2872 23.7019C48.2872 26.3601 50.4651 28.515 53.1515 28.515Z" fill="black"/>
</g>
<defs>
<clipPath id="clip0">
<rect width="30.3571" height="47.8968" fill="white" transform="translate(27.6587 18.8889)"/>
</clipPath>
</defs>
</svg>
